Coordinates
version=1
nRows=16
nColumns=42
inDegrees=yes

Units are S.I. units (second, meters, Newtons, ...)
If the header above contains a line with 'inDegrees', this indicates whether rotational values are in degrees (yes) or radians (no).

endheader
time	pelvis_tilt	pelvis_list	pelvis_rotation	pelvis_tx	pelvis_ty	pelvis_tz	hip_flexion_r	hip_adduction_r	hip_rotation_r	knee_angle_r	knee_adduction_r	knee_angle_r_beta	ankle_angle_r	subtalar_angle_r	mtp_angle_r	hip_flexion_l	hip_adduction_l	hip_rotation_l	knee_angle_l	knee_adduction_l	knee_angle_l_beta	ankle_angle_l	subtalar_angle_l	mtp_angle_l	lumbar_extension	lumbar_bending	lumbar_rotation	arm_flex_r	arm_add_r	arm_rot_r	elbow_flex_r	pro_sup_r	wrist_flex_r	wrist_dev_r	arm_flex_l	arm_add_l	arm_rot_l	elbow_flex_l	pro_sup_l	wrist_flex_l	wrist_dev_l
      2.15000000	     20.22499461	     -1.13121287	      4.16561735	      0.42507308	      0.94387478	     -0.34750380	    -10.09378627	      3.44630730	    -24.11798038	     20.53496634	     -4.20398797	      0.35840277	     11.81425339	     35.53319572	     -7.51919599	    -23.61646221	     -0.16114831	     -5.31310316	     44.72870763	      6.97793835	      0.78066322	     11.07157187	     -9.93987486	     -7.51919599	    -34.57621210	     -1.09914575	     -0.24439622	      6.24249935	     -9.15143019	    -31.44556650	     23.92866939	     90.00000001	      0.00000000	      0.00000000	     -0.30147930	    -21.35689629	      6.34232883	     72.73853350	     90.00000001	      0.00000000	      0.00000000
      2.16000000	     20.17256036	     -1.07167237	      4.43016380	      0.42988369	      0.94423368	     -0.34891381	    -10.56703668	      3.31580256	    -23.80501931	     20.29527307	     -3.75075271	      0.35421934	     12.06726531	     35.27866218	     -7.51884345	    -22.23744809	     -0.64365924	     -5.58265889	     47.00620343	      6.74613724	      0.82041302	     11.03175526	    -10.84370892	     -7.51884345	    -34.55357144	     -1.05628185	     -0.37643147	      6.80626779	     -9.17217416	    -31.19282218	     24.41031806	     90.00000001	      0.00000000	      0.00000000	     -0.19037187	    -21.38638748	      6.37620568	     73.00880421	     90.00000001	      0.00000000	      0.00000000
      2.17000000	     19.89327397	     -1.32492833	      4.55416508	      0.43454416	      0.94405983	     -0.34970671	    -10.57876642	      3.68638232	    -23.34172975	     20.22314169	     -3.80676902	      0.35296041	     12.25569752	     34.58453657	     -7.51825118	    -20.46050983	     -1.52451572	     -6.19760850	     49.39879622	      6.55561110	      0.86217164	     10.87126636	    -12.48578075	     -7.51825118	    -34.27159930	     -0.82670864	     -0.21811095	      7.32092374	     -9.25793879	    -30.53861597	     24.93651558	     90.00000001	      0.00000000	      0.00000000	     -0.07188039	    -21.35436128	      6.35201075	     73.20080733	     90.00000001	      0.00000000	      0.00000000
      2.18000000	     19.72721114	     -1.43463946	      4.70569890	      0.43918049	      0.94411440	     -0.35074289	    -10.78475565	      3.83895579	    -22.75742045	     20.12326718	     -3.62526293	      0.35121727	     12.48936332	     33.81491490	     -7.51760959	    -18.85046741	     -2.19138153	     -6.62722896	     51.31932503	      6.23626267	      0.89569119	     10.86045344	    -13.96300617	     -7.51760959	    -34.13691900	     -0.71102467	     -0.14187766	      7.79216333	     -9.33908692	    -29.58757656	     25.58946851	     90.00000001	      0.00000000	      0.00000000	      0.07383441	    -21.31434297	      6.37190974	     73.40046158	     90.00000001	      0.00000000	      0.00000000
      2.19000000	     19.74936352	     -1.31065287	      4.91327278	      0.44391028	      0.94456983	     -0.35226449	    -11.32941914	      3.64228276	    -22.35395978	     19.89977249	     -3.21790625	      0.34731655	     12.75510333	     33.48522412	     -7.51733535	    -17.57111685	     -2.49014085	     -6.91579861	     52.50605091	      5.67116987	      0.91640347	     11.42026555	    -14.88454910	     -7.51733535	    -34.21536132	     -0.73563795	     -0.25204158	      8.40660106	     -9.39872395	    -29.11662151	     26.14584678	     90.00000001	      0.00000000	      0.00000000	      0.22551383	    -21.33295216	      6.44621647	     73.58659210	     90.00000001	      0.00000000	      0.00000000
      2.20000000	     19.61708969	     -1.50550104	      4.98485234	      0.44839679	      0.94469450	     -0.35312183	    -11.65267360	      3.92159967	    -20.98921041	     19.60847601	     -2.77701991	      0.34223247	     12.83221025	     31.37532669	     -7.51578728	    -15.96420263	     -3.26045259	     -7.41324031	     53.80169789	      5.31643636	      0.93901677	     11.65181482	    -16.01432787	     -7.51578728	    -34.14294420	     -0.57762279	     -0.05890216	      8.50792867	     -9.77559647	    -25.84265957	     27.35727155	     90.00000001	      0.00000000	      0.00000000	      0.39882360	    -21.30301619	      6.49497990	     73.69591352	     90.00000001	      0.00000000	      0.00000000
      2.21000000	     19.75351542	     -1.30535416	      5.04584191	      0.45297544	      0.94535904	     -0.35438548	    -12.22637239	      3.69586334	    -20.75671633	     19.50782708	     -2.69943212	      0.34047581	     13.00110450	     31.18488280	     -7.51562616	    -14.82845406	     -3.45944915	     -7.65089492	     54.32328983	      4.85797563	      0.94812027	     12.26178932	    -16.41761622	     -7.51562616	    -34.38674382	     -0.78216315	     -0.01777994	      9.21003216	     -9.79803654	    -25.61898825	     27.83297213	     90.00000001	      0.00000000	      0.00000000	      0.64924621	    -21.28328091	      6.53565662	     73.81385248	     90.00000001	      0.00000000	      0.00000000
      2.22000000	     19.58393728	     -1.51685986	      5.14900678	      0.45739611	      0.94545402	     -0.35552963	    -12.54829066	      3.96414796	    -19.36907599	     19.11680247	     -2.20812490	      0.33365115	     13.07955609	     29.31724957	     -7.51419816	    -13.16141539	     -4.08932552	     -8.20418378	     54.88112966	      4.07456815	      0.95785641	     12.79731578	    -16.86853429	     -7.51419816	    -34.29176140	     -0.56740393	      0.15917419	      9.40370340	    -10.18690766	    -22.81560063	     29.11456587	     90.00000001	      0.00000000	      0.00000000	      0.80729757	    -21.23248435	      6.69375859	     73.94713734	     90.00000001	      0.00000000	      0.00000000
      2.23000000	     19.61422996	     -1.37929397	      5.17008347	      0.46187165	      0.94595822	     -0.35679626	    -12.99811874	      3.79209405	    -19.16624171	     18.97446016	     -2.14314517	      0.33116680	     13.27819808	     29.08845364	     -7.51402450	    -11.87349362	     -4.27191412	     -8.31694374	     54.82634199	      3.61994473	      0.95690018	     13.39129243	    -17.08496041	     -7.51402450	    -34.42993195	     -0.72597807	      0.22664119	     10.14318589	    -10.20592110	    -22.60614868	     29.61835944	     90.00000001	      0.00000000	      0.00000000	      0.99852888	    -21.19371184	      6.75707433	     74.03618284	     90.00000001	      0.00000000	      0.00000000
      2.24000000	     19.54283650	     -1.29246936	      5.20553389	      0.46627672	      0.94631198	     -0.35811632	    -13.33677667	      3.67065169	    -18.85802235	     18.81185892	     -2.04786170	      0.32832888	     13.48430951	     28.78906206	     -7.51384113	    -10.45406100	     -4.44915039	     -8.35302695	     54.48751008	      3.12747791	      0.95098645	     13.89824207	    -17.17696156	     -7.51384113	    -34.47012486	     -0.82514900	      0.30020476	     10.85823243	    -10.23997216	    -22.32162752	     30.20979818	     90.00000001	      0.00000000	      0.00000000	      1.17597047	    -21.15228226	      6.85023292	     74.11885045	     90.00000001	      0.00000000	      0.00000000
      2.25000000	     19.65449200	     -1.14917438	      5.13105411	      0.47067360	      0.94705381	     -0.35947189	    -14.08140274	      3.46842129	    -17.51745932	     18.26753074	     -1.50477420	      0.31882856	     13.53948032	     27.32205313	     -7.51302884	     -9.32299514	     -4.48114633	     -8.33159973	     53.74414982	      2.67005869	      0.93801237	     13.96652433	    -17.30511751	     -7.51302884	    -34.73243906	     -1.00208602	      0.50386015	     11.10197824	    -10.60176348	    -19.98436321	     31.66083541	     90.00000001	      0.00000000	      0.00000000	      1.41775071	    -21.13517792	      7.17159780	     74.15974460	     90.00000001	      0.00000000	      0.00000000
      2.26000000	     19.51833715	     -1.09402834	      5.15806925	      0.47496984	      0.94724721	     -0.36084929	    -14.31378494	      3.39610288	    -17.30716596	     18.13014014	     -1.51388071	      0.31643064	     13.69563871	     26.96379302	     -7.51281504	     -7.83899445	     -4.61568920	     -8.12089924	     52.95117430	      2.29747781	      0.92417233	     14.43356564	    -17.14289255	     -7.51281504	    -34.70853141	     -1.08252365	      0.57419952	     11.88101837	    -10.63517120	    -19.60800816	     32.14937728	     90.00000001	      0.00000000	      0.00000000	      1.57372741	    -21.07155911	      7.22239250	     74.18847077	     90.00000001	      0.00000000	      0.00000000
      2.27000000	     19.36640438	     -1.06580382	      5.14873164	      0.47933376	      0.94739081	     -0.36221602	    -14.53214537	      3.33555707	    -17.07293744	     17.99622713	     -1.50470231	      0.31409342	     13.86344983	     26.63229901	     -7.51262542	     -6.39370228	     -4.73547765	     -7.83536298	     51.87444380	      1.97205042	      0.90537984	     14.71386152	    -16.88999340	     -7.51262542	    -34.65002052	     -1.15150379	      0.69792805	     12.61476373	    -10.67524370	    -19.23704811	     32.70980652	     90.00000001	      0.00000000	      0.00000000	      1.69570899	    -21.00175911	      7.30471083	     74.21176203	     90.00000001	      0.00000000	      0.00000000
      2.28000000	     19.58969961	     -0.74965951	      5.07607170	      0.48373249	      0.94838482	     -0.36394684	    -15.49326462	      2.88973512	    -15.90329997	     17.29546914	     -0.90271679	      0.30186288	     13.77884305	     25.25543533	     -7.51154938	     -5.61572465	     -4.42294303	     -7.15772676	     50.13872319	      1.87790779	      0.87508580	     14.52821907	    -17.10297524	     -7.51154938	    -35.05746818	     -1.46908854	      0.71634741	     12.88956045	    -11.20149787	    -15.87717538	     34.05880515	     90.00000001	      0.00000000	      0.00000000	      1.87387169	    -20.97196852	      7.47400007	     74.22731267	     90.00000001	      0.00000000	      0.00000000
      2.29000000	     19.57226549	     -0.59796072	      5.03121265	      0.48820846	      0.94879071	     -0.36551976	    -15.97402818	      2.66763900	    -15.57940018	     16.95572794	     -0.80436946	      0.29593328	     13.94758246	     25.03348782	     -7.51115589	     -4.53095216	     -4.31008186	     -6.54202875	     48.41611837	      1.73636669	      0.84502068	     14.60571451	    -16.94845503	     -7.51115589	    -35.15169230	     -1.65007671	      0.79881184	     13.58957874	    -11.24976776	    -15.34100778	     34.71660954	     90.00000001	      0.00000000	      0.00000000	      1.99168329	    -20.90871665	      7.59445721	     74.20068966	     90.00000001	      0.00000000	      0.00000000
      2.30000000	     19.56260814	     -0.45006884	      4.97760574	      0.49276621	      0.94917551	     -0.36711243	    -16.48250405	      2.43749659	    -15.25602478	     16.58965773	     -0.67972286	      0.28954415	     14.10614103	     24.77401392	     -7.51080808	     -3.52131700	     -4.16165588	     -5.99068227	     46.50051357	      1.48422372	      0.81158707	     14.56902816	    -16.79924271	     -7.51080808	    -35.23755263	     -1.83296511	      0.87723409	     14.25580785	    -11.32068347	    -14.60244223	     35.39520133	     90.00000001	      0.00000000	      0.00000000	      2.08083950	    -20.87017931	      7.70700733	     74.16369902	     90.00000001	      0.00000000	      0.00000000
